<svg width="216" height="249" viewBox="0 0 216 249" fill="none" xmlns="http://www.w3.org/2000/svg">
<path d="M216 109.087C215.037 129.101 212.443 147.88 205.516 166.108C200.981 178.036 195.373 189.258 187.851 199.206C176.099 214.753 162.946 228.917 144.539 236.939C135.478 240.886 126.922 245.664 116.917 247.348C95.6624 250.933 75.2103 248.939 56.0739 238.843C35.0457 227.746 20.6107 210.141 10.5278 188.525C1.97604 170.195 -0.435986 150.902 0.0620298 130.872C0.474565 114.291 4.52559 98.4732 9.86253 83.1309C13.2037 73.5259 18.5927 64.4799 24.0894 55.8608C37.1493 35.3855 54.762 19.7449 76.5706 9.56957C106.006 -4.16747 135.414 -3.14768 163.731 12.8405C183.41 23.9525 196.603 41.07 205.631 62.074C212.246 77.4616 213.755 93.6386 216 109.094V109.087ZM10.4274 134.578C11.7171 144.798 12.5347 155.11 14.4227 165.213C16.4259 175.955 20.2131 186.493 26.2822 195.35C33.2915 205.582 40.68 215.772 51.6029 222.722C65.2277 231.39 79.3059 238.276 95.6921 238.046C125.476 237.63 150.351 226.239 170.48 203.599C189.111 182.644 199.985 158.399 203.754 130.529C206.842 107.682 203.802 85.6879 194.604 64.8425C187.758 49.3265 177.831 36.1447 163.214 26.653C154.034 20.6929 144.475 15.7374 134.114 13.5657C115.498 9.66399 97.6284 12.1908 79.7482 20.2283C63.3992 27.5784 50.7927 38.4563 39.933 52.1555C30.716 63.785 22.8221 76.4947 18.4068 90.6396C14.0065 104.728 9.68042 119.19 10.42 134.574L10.4274 134.578Z" fill="#FFDA3D"/>
<path d="M175.609 129.792C174.553 138.079 171.591 145.157 167.262 151.488C155.525 168.632 141.499 183.196 121.961 191.252C103.389 198.908 86.2672 195.294 71.3787 182.841C63.2135 176.012 56.7467 166.985 52.5471 156.775C50.1499 150.948 47.8568 145.052 45.9874 139.035C44.1663 133.162 45.3184 129.592 48.5741 128.588C52.1791 127.477 53.9742 129.097 56.2153 135.719C59.7051 146.03 64.1464 155.763 70.2861 164.843C79.9193 179.083 95.4024 186.554 111.978 183.086C121.388 181.118 129.743 176.427 137.05 169.916C143.87 163.839 150.604 157.697 155.179 149.588C157.963 144.647 160.836 139.722 163.11 134.536C166.043 127.843 167.161 127.133 175.605 129.796L175.609 129.792Z" fill="#FFDA3D"/>
<path d="M133.852 63.3751C133.328 71.9716 132.678 79.945 132.44 87.9296C132.347 91.0267 132.752 94.3165 133.771 97.2135C134.41 99.034 136.476 101.255 138.16 101.504C139.732 101.735 142.174 100.001 143.311 98.441C148.982 90.6453 151.614 81.5691 153.234 72.1416C153.721 69.3202 153.866 66.3552 154.877 63.7377C155.501 62.125 157.385 60.1269 158.85 59.9985C160.236 59.8738 161.972 61.8077 163.235 63.1447C163.938 63.8888 164.399 65.3241 164.265 66.359C162.395 80.9232 159.994 95.3212 150.09 107C149.904 107.219 149.77 107.483 149.573 107.687C140.334 117.375 130.6 115.725 124.922 103.525C124.327 102.248 123.216 101.066 123.074 99.7554C121.881 88.6774 119.6 77.5768 123.937 66.5932C126.144 60.9994 126.635 60.667 133.849 63.3714L133.852 63.3751Z" fill="#FFDA3D"/>
<path d="M43.8077 76.5853C44.9413 72.8876 45.8407 69.0086 47.3905 65.4204C47.9182 64.2004 50.3897 62.75 51.4118 63.0975C52.995 63.6376 54.9016 65.4582 55.2324 67.0445C55.9273 70.3759 55.5557 73.9225 55.8605 77.3596C56.2656 81.9109 56.3956 86.5755 57.5515 90.9455C59.2313 97.3136 62.9367 98.798 68.2997 95.0134C76.8588 88.9739 82.2441 80.3623 85.3288 70.2852C85.8306 68.646 86.1576 66.9388 86.3992 65.2391C86.8898 61.7869 88.0308 58.9013 92.1524 59.4187C95.553 59.8455 97.9911 64.1022 96.9356 68.1021C95.9172 71.966 94.6648 75.8601 92.866 79.403C88.2166 88.5736 83.0469 97.4118 74.9114 104.022C64.7318 112.293 52.2591 109.461 47.9145 97.1436C45.6586 90.7529 45.1717 83.7239 43.8077 76.5815V76.5853Z" fill="#FFDA3D"/>
</svg>
