<svg width="281" height="224" viewBox="0 0 281 224" fill="none" xmlns="http://www.w3.org/2000/svg">
<path d="M251.231 117.702C253.245 119.233 255.678 120.733 257.682 122.677C261.934 126.798 266.077 131.05 269.998 135.481C270.889 136.487 271.467 138.89 270.886 139.899C266.906 146.817 262.866 153.735 258.288 160.262C252.06 169.139 243.521 175.741 234.976 182.252C219.905 193.741 203.268 202.396 185.677 209.286C167.911 216.247 149.598 220.869 130.562 222.912C109.986 225.124 89.6339 224.006 69.6292 219.163C49.7402 214.348 31.5803 205.786 16.8817 191.007C15.8718 189.992 14.5585 189.183 13.8331 188.005C9.96541 181.718 8.07688 180.749 13.4798 174.057C17.7509 168.764 23.0288 164.242 28.1097 159.656C31.0738 156.981 31.5397 155.781 29.1634 152.516C24.2169 145.717 18.8984 139.159 14.3709 132.097C7.46092 121.324 2.67393 109.697 1.95479 96.6398C1.68276 91.7061 0.144425 86.8256 0.00684983 81.9013C-0.215146 73.9931 4.98144 71.4216 12.3073 74.5649C19.9302 77.8394 24.2451 84.5728 29.9794 89.8127C32.5465 92.1592 34.5695 95.1056 37.6493 97.499C37.2272 95.868 36.5924 94.262 36.4205 92.606C35.6169 84.8103 34.6883 77.0145 34.3162 69.1938C34.0786 64.2133 31.9118 58.7765 36.5049 54.3647C36.9489 53.9366 36.5205 52.5431 36.408 51.6057C35.3699 42.9726 38.9656 35.7299 46.3947 31.3993C52.2009 28.0123 61.4341 28.8684 67.0653 33.6958C75.9326 41.3041 82.0704 50.7808 87.6203 60.7887C88.4957 62.3698 89.218 64.0352 91.3817 65.5537C91.9101 61.0137 92.4198 56.4737 92.9701 51.9369C94.1488 42.2508 95.8247 32.6866 100.709 24.0441C101.753 22.1975 103.041 20.4102 104.533 18.9136C109.964 13.4644 115.951 13.4612 121.095 19.2354C126.632 25.4564 130.594 32.7178 133.355 40.5729C135.296 46.094 137.007 51.6932 138.951 57.6611C141.819 54.9865 141.162 51.3901 142.116 48.3874C143.041 45.4785 144.414 42.6226 144.783 39.6449C145.442 34.2957 147.459 29.6464 150.433 25.2689C151.008 24.419 151.221 23.3129 151.546 22.3068C154.266 13.933 159.065 6.9903 166.498 2.24724C172.97 -1.88341 178.851 -0.139913 183.676 6.00295C189.382 13.2675 190.82 21.8756 191.765 30.5244C192.521 37.4546 192.146 44.5036 192.327 51.4995C192.362 52.8336 192.662 54.1585 194.078 55.9051C197.099 50.7621 200.06 45.5847 203.149 40.4823C208.48 31.6805 214.167 23.1223 222.575 16.8795C225.389 14.7892 228.206 12.6114 232.324 13.3706C238.068 14.433 240.635 16.6858 241.611 22.4506C243.906 36.0142 241.97 49.1467 237.54 62.6635C238.768 62.3823 240.1 62.4854 240.751 61.8698C246.754 56.1988 252.435 50.1684 258.639 44.7286C262.463 41.3759 266.508 37.9546 272.531 39.1013C278.671 40.273 281.507 43.5881 280.926 49.7903C279.766 62.1417 274.841 73.2151 269.213 84.0135C263.426 95.1119 257.438 106.104 251.238 117.702H251.231ZM147.162 115.131C146.853 114.737 146.54 114.347 146.23 113.953C140.058 115.446 133.833 116.752 127.745 118.53C125.425 119.208 122.73 120.471 121.395 122.324C115.523 130.482 111.286 139.668 109.845 149.535C108.491 158.818 108.3 168.423 111.327 177.603C114.144 186.155 117.074 194.685 123.912 201.153C129.784 206.708 136.425 210.761 144.695 210.745C158.897 210.717 170.218 204.327 177.291 192.379C187.841 174.56 191.996 155.141 186.24 134.725C183.726 125.814 179.917 117.202 169.662 114.022C161.526 111.5 156.802 113.906 153.928 122.389C161.955 123.045 165.685 126.914 166.004 134.915C166.254 141.158 165.36 147.089 162.392 152.769C157.921 161.334 149.166 162.377 143.973 154.338C140.624 149.154 138.942 143.289 139.264 136.806C139.667 128.72 142.15 121.546 147.159 115.134L147.162 115.131ZM109.882 124.567C81.9109 131.841 27.3405 165.386 19.5863 181.593C49.8403 212.767 102.447 218.116 123.396 212.97C101.031 197.166 90.8689 157.634 109.882 124.564V124.567ZM184.142 111.297C184.704 112.303 185.033 113.175 185.596 113.85C191.511 120.971 195.004 129.235 196.627 138.231C197.339 142.186 197.211 146.314 197.277 150.366C197.449 161.359 195.995 171.998 190.995 182.027C188.291 187.452 186.233 193.198 183.438 199.856C187.05 198.653 190.004 197.944 192.724 196.719C209.912 188.998 225.517 178.684 240.057 166.823C249.374 159.221 256.522 149.807 260.865 137.375C256.506 133.866 252.316 130.019 247.667 126.848C237.893 120.18 226.746 116.646 215.302 114.265C205.197 112.166 195.082 109.316 184.139 111.291L184.142 111.297ZM97.9665 117.562C95.7497 109.435 94.1926 101.955 91.6506 94.8213C87.9267 84.3666 83.4649 74.1774 79.3908 63.8477C75.842 54.8521 69.7855 47.5032 63.5165 40.423C57.8103 33.977 47.8204 35.7549 43.9902 43.5194C42.9678 45.5972 42.4237 47.9312 41.8359 50.1965C39.7004 58.4078 40.9886 66.6441 41.2356 74.9523C41.7015 90.4782 45.9663 104.851 52.104 118.827C54.6367 124.595 57.6946 130.135 60.593 135.94C67.0809 132.66 72.9716 129.61 78.9249 126.685C85.0626 123.67 91.2566 120.771 97.9665 117.565V117.562ZM180.365 100.274C181.525 88.7003 182.769 77.6738 183.701 66.6191C184.845 53.0774 184.348 39.5137 182.522 26.0875C181.768 20.5446 179.602 15.1048 177.457 9.87426C176.003 6.32477 173.189 5.79673 169.846 7.7152C168.233 8.64006 166.685 9.83052 165.428 11.1959C159.625 17.5169 155.904 25.1127 153.081 33.0709C148.791 45.1691 144.211 67.2815 144.667 84.954C144.83 91.2437 145.339 97.5209 145.708 104.089C157.533 102.789 168.568 101.573 180.361 100.277L180.365 100.274ZM137.735 105.654C136.481 86.5506 133.77 68.9063 129.087 51.7338C126.498 42.2414 122.771 32.7834 115.976 25.0752C112.184 20.7727 110.749 20.7633 107.453 25.5189C102.272 32.9928 100.859 41.7821 99.4111 50.3965C97.4006 62.3541 98.1166 74.4836 99.8895 86.3757C101.306 95.8774 104.229 105.154 106.484 114.543C117.474 111.416 127.42 108.588 137.732 105.654H137.735ZM214.377 103.711C221.387 90.5532 225.621 76.2552 229.682 61.9105C232.596 51.6182 235.119 41.2166 234.716 30.4088C234.588 26.978 233.759 23.5754 233.115 19.2354C230.186 20.9601 228.062 21.9819 226.19 23.3504C217.969 29.3621 212.754 37.8889 207.898 46.4846C201.961 57.0049 196.827 67.9846 193.115 79.5298C190.949 86.2694 188.528 93.0184 189.076 100.405C197.643 101.523 206.047 102.62 214.374 103.708L214.377 103.711ZM5.65993 79.3298C5.51611 108.885 18.9015 133.01 36.6987 152.31C42.3362 148.326 48.0424 144.299 53.6861 140.312C44.2873 120.427 21.9157 87.1849 5.65993 79.3298ZM272.749 46.7064C257.776 48.3406 232.402 79.4673 224.182 106.292C230.517 108.669 236.87 111.05 243.718 113.619C247.67 106.66 251.516 100.436 254.827 93.9402C260.108 83.5792 265.336 73.1682 269.976 62.5135C272.09 57.658 273.59 52.2931 272.749 46.7064Z" fill="#FFDA3D"/>
</svg>
