<svg width="453" height="184" viewBox="0 0 453 184" fill="none" xmlns="http://www.w3.org/2000/svg">
<path d="M114.076 98.466C110 97.2892 98.8083 96.3877 94.3143 96.2928C92.2526 96.2454 90.5424 97.2418 88.6328 97.2513C83.0652 97.2797 71.5691 96.103 67.3222 98.7506C59.94 103.353 57.4982 118.252 65.9731 122.788C75.1225 127.685 84.2148 119.192 76.6426 136.529C69.8779 152.026 55.313 156.8 42.5628 144.273C23.1334 125.189 34.4015 59.8331 55.9401 44.678C62.1537 40.3032 68.0823 38.9651 74.9324 42.6661C85.1459 48.1987 91.2455 76.3169 106.704 65.0145C118.637 56.2935 111.758 31.174 104.167 21.058C83.7303 -6.20613 46.8002 -0.550234 26.4112 23.7151C-4.34327 60.2981 -16.0769 153.829 34.943 178.455C55.6646 188.457 70.714 184.149 86.6661 171.755C107.521 155.556 115.482 134.166 118.523 108.108C119.026 103.799 118.798 99.823 114.086 98.4565L114.076 98.466ZM110.865 109C107.967 140.828 88.0342 180.154 50.6481 176.054C39.4085 174.821 24.1215 164.818 18.2309 155.291C-3.12715 120.757 8.36896 42.4004 41.8882 18.2964C64.5764 1.98353 98.8083 10.5528 104.86 39.3352C106.076 45.0955 108.556 65.2613 97.3261 59.1878C90.9985 55.762 87.1791 41.0529 77.6307 36.1657C61.5931 27.9475 47.3703 39.7053 39.5605 52.991C24.378 78.8222 14.7536 138.665 46.0591 155.955C62.7047 165.151 80.1294 151.343 84.8514 135.239C85.849 131.851 87.5022 122.912 85.811 120.046C83.9488 116.895 70.847 118.404 68.4528 116.032C67.1037 114.693 67.2462 112.264 67.6737 110.556C70.429 99.5383 86.9891 104.748 95.2929 104.872C98.3712 104.919 101.792 103.619 105.791 103.885C110.76 104.217 111.292 104.15 110.855 109H110.865Z" fill="#FDD443"/>
<path d="M170.217 45.4087C173.552 42.3435 180.792 39.3352 185.333 39.6294C195.461 40.2747 203.442 61.2091 214.558 48.4264C224.667 36.8015 218.871 19.2454 207.261 11.0842C173.524 -12.6117 127.853 29.3805 131.995 65.3846C135.757 98.1338 193.295 98.428 184.089 132.809C181.808 141.331 172.63 147.67 163.804 146.532C153.173 145.165 148.565 131.879 138.598 130.911C129.971 130.076 124.014 139.044 124.271 147.044C125.126 173.141 164.488 189.435 185.409 176.823C217.294 157.597 225.94 106.077 195.081 82.0961C184.83 74.1342 156.327 68.7156 166.236 50.4478C166.597 49.774 169.638 45.9496 170.227 45.4182L170.217 45.4087ZM170.512 77.1994C185.001 85.8066 195.423 86.4424 203.309 104.226C219.479 140.695 184.003 194.388 143.919 166.394C137.211 161.706 127.995 151.998 131.653 143.068C136.65 130.873 145.163 144.273 150.018 147.965C169.923 163.11 194.454 147.148 191.499 123.614C187.765 93.8919 157.676 94.5657 143.292 74.9693C126.304 51.8333 158.284 12.1376 183.975 11.1317C197.941 10.5813 214.615 21.3332 212.563 36.9248C210.463 52.8392 203.024 41.3091 197.751 37.6461C171.519 19.4352 139.102 58.533 170.521 77.1804L170.512 77.1994Z" fill="#FDD443"/>
<path d="M315.268 65.4795C313.368 49.8879 312.931 32.4457 310.413 17.1861C310.099 15.2882 309.434 12.0332 308.513 10.4579C308.418 10.2966 305.596 8.56943 305.425 8.503C299.439 6.43423 280.181 4.57424 275.003 7.24086C273.464 8.038 272.238 9.71769 271.364 11.1981C267.06 18.4767 262.661 32.6165 259.44 41.0434C246.168 75.7664 232.733 113.744 222.624 149.464C221.237 154.38 216.848 167.865 216.753 171.926C216.696 174.432 218.149 177.165 220.496 178.17C223.688 179.537 239.631 179.565 242.187 177.535C247.963 172.942 256.21 136.539 259.193 134.736L293.406 134.29C295.838 142.878 296.218 172.942 300.589 178.835C302.603 181.549 317.681 181.245 321.462 180.799C330.783 179.708 328.246 171.015 327.609 164.183C324.522 131.244 319.268 98.2857 315.277 65.47L315.268 65.4795ZM305.757 173.198C304.437 162.569 302.708 151.979 301.016 141.398C300.427 137.687 299.126 135.021 299.078 134.631C298.945 133.521 299.943 132.126 299.667 130.418C299.287 128.121 295.088 126.907 292.96 126.67C287.164 126.024 257.996 126.138 254.139 128.511C249.977 131.073 240.667 170.503 238.177 172.116C237.208 172.742 224.752 172.856 224.125 170.702C223.498 168.51 235.337 132.382 237.104 126.916C249.331 88.9098 262.994 51.0361 278.195 14.2253C280.266 12.9727 298.299 13.8173 301.339 14.8706C302.128 15.1458 302.594 15.459 302.736 16.3226L320.968 173.198H305.757Z" fill="#FDD443"/>
<path d="M443.008 26.6284C429.82 7.72484 401.536 -4.31767 378.61 1.45211C377.86 1.6419 378.04 3.20771 377.309 3.34057C376.207 3.54934 374.943 2.6668 372.729 3.24567C362.516 5.9123 362.022 17.1197 360.179 25.9072C353.804 56.3883 349.994 88.6156 345.509 119.438C343.429 133.749 336.939 159.817 337.281 172.723C337.338 174.944 338.156 177.952 339.942 179.357C342.972 181.729 364.369 182.716 366.421 176.396L375.095 123.842C400.092 128.814 428.167 115.813 442.39 95.6855C456.242 76.0796 456.623 46.1584 442.989 26.619L443.008 26.6284ZM384.986 118.053C381.081 118.167 373.556 115.244 370.307 118.565C364.625 135.846 364.701 155.243 360.863 173.188C355.248 172.885 350.364 175.324 344.825 173.093C343.115 171.063 347.903 153.535 348.445 149.872C350.991 132.629 352.692 115.234 355.428 98.0105C359.97 69.4557 365.404 40.9959 370.582 12.5551C371.561 10.2017 381.29 8.29423 384.112 8.038C408.842 5.77944 437.716 18.4957 444.015 44.1276C453.905 84.3452 425.155 116.924 384.995 118.062L384.986 118.053Z" fill="#FDD443"/>
<path d="M289.378 42.4763C288.181 41.0434 284.285 41.2332 283.611 43.4348L261.521 103.875C260.409 105.858 261.369 109.968 263.478 110.556H297.207C297.245 97.517 294.176 84.8387 292.58 71.999C292 67.3585 290.879 44.2604 289.378 42.4669V42.4763ZM268.704 103.913L284.38 63.1356L290.556 103.923C283.155 103.619 276.067 103.012 268.704 103.923V103.913Z" fill="#FDD443"/>
<path d="M426.723 50.5806C425.412 45.5226 426.372 46.6898 422.999 41.869C415.617 31.3354 403.892 26.7328 390.753 27.957C382.639 28.7162 383.475 34.2203 382.05 41.0908C379.066 55.4584 374.772 77.7498 374.117 92.0319C373.85 97.8017 374.582 98.7127 380.292 99.2157C396.558 100.649 419.825 90.3142 425.935 74.4853C428.082 68.9148 429.573 57.0526 428.3 51.4157C428.148 50.7514 426.761 50.723 426.723 50.5806ZM381.755 91.5859L389.489 35.7196C402.724 32.3413 419.616 39.4112 421.583 54.1772C424.937 79.2871 404.519 92.3071 381.755 91.5859Z" fill="#FDD443"/>
</svg>
