<svg width="369" height="382" viewBox="0 0 369 382" fill="none" xmlns="http://www.w3.org/2000/svg">
<path d="M59.52 104.76C59.52 113.4 63.36 117.24 72.16 117.24H77.44V123H29.28V117.24H34.56C43.36 117.24 47.2 113.4 47.2 104.76V28.44C47.2 20.76 43.04 17.08 33.6 17.08H28.96C16.16 17.08 11.04 24.28 8.16 34.04L7.36 36.76H2.4L7.84 11H98.88L104.32 36.76H99.36L98.56 34.04C95.68 24.28 90.56 17.08 77.76 17.08H73.12C63.68 17.08 59.52 20.76 59.52 28.44V104.76ZM122.809 108.44C122.809 114.36 125.529 117.72 130.329 117.72H135.449V123H98.4887V117.72H103.609C108.409 117.72 111.129 114.36 111.129 108.44V22.52C111.129 11.8 109.529 11 97.3687 11.96V6.67999C109.209 5.4 113.369 3.96 118.009 0.439995H122.809V55.48C133.049 44.92 144.409 40.44 152.569 40.44C165.209 40.44 173.689 48.44 173.689 63.64V108.44C173.689 114.36 176.409 117.72 181.209 117.72H186.329V123H149.369V117.72H154.489C159.289 117.72 162.009 114.36 162.009 108.44V65.08C162.009 54.68 157.049 49.24 147.609 49.24C140.889 49.24 131.289 53.56 122.809 62.68V108.44ZM181.552 83.48C181.552 58.52 196.752 40.44 220.913 40.44C240.113 40.44 253.873 55 253.873 79.64H194.672C194.512 80.92 194.512 82.2 194.512 83.48C194.512 103.32 205.552 118.52 222.512 118.52C233.232 118.52 244.752 112.12 249.713 100.6L254.673 103.96C248.273 116.92 237.553 125.4 220.592 125.4C198.352 125.4 181.552 108.44 181.552 83.48ZM195.312 73.08H241.873C241.233 57.56 232.753 46.52 219.793 46.52C206.352 46.52 197.872 57.4 195.312 73.08ZM61.6 245.88C71.2 245.88 81.44 243.16 88.96 238.04V214.84C88.96 206.52 84.16 202.84 73.28 202.84H69.44V197.08H113.6V202.84H109.6C103.84 202.84 101.28 205.72 101.28 212.12V239.16C89.76 248.12 77.44 253.4 60 253.4C28 253.4 5.6 229.24 5.6 194.84C5.6 160.6 28.96 136.6 61.28 136.6C73.28 136.6 85.76 139.96 95.84 145.08L98.56 171.64H94.56C92.48 167.16 90.88 162.68 88.64 158.36C83.2 147.16 71.84 143.96 61.92 143.96C36 143.96 18.88 164.92 18.88 192.92C18.88 223.16 37.28 245.88 61.6 245.88ZM122.267 163.32C122.267 192.76 181.148 183.32 181.148 221.24C181.148 238.04 168.988 253.56 144.188 253.56C129.628 253.56 117.147 248.44 109.147 241.08L107.387 219.48H111.387C113.627 224.92 115.387 228.92 117.147 231.48C120.667 237.24 128.668 246.2 144.188 246.2C160.028 246.2 168.988 236.6 168.988 224.12C168.988 193.08 110.267 204.76 110.267 166.52C110.267 150.68 122.427 136.6 146.428 136.6C154.748 136.6 164.188 138.84 172.828 142.04L174.588 163H170.587C169.308 159.64 167.227 155.32 166.428 154.04C161.948 147 153.788 143.96 146.428 143.96C131.228 143.96 122.267 152.76 122.267 163.32ZM268.638 232.44C271.518 240.44 276.798 245.24 283.038 245.24H287.198V251H243.038V245.24H248.478C255.038 245.24 256.798 240.6 254.077 232.44L247.198 211.96H210.557L203.357 232.44C200.637 240.44 202.557 245.24 208.957 245.24H214.558V251H175.997V245.24H179.997C186.557 245.24 191.517 240.6 194.397 232.44L227.677 139H235.517L268.638 232.44ZM212.797 205.08H244.798L229.117 158.36L212.797 205.08ZM282.056 251V245.24H287.336C295.016 245.24 298.376 242.36 298.376 235.96V154.04C298.376 147.64 295.016 144.76 287.336 144.76H282.056V139H330.536C355.656 139 368.136 153.88 368.136 168.76C368.136 183.8 355.656 198.68 330.536 198.68C326.216 198.68 319.496 198.2 310.696 196.28V233.56C310.696 241.56 315.016 245.24 324.776 245.24H330.056V251H282.056ZM310.696 189.88C319.656 191.96 326.376 192.44 330.536 192.44C346.696 192.44 354.856 180.92 354.856 168.76C354.856 156.76 346.216 144.76 328.776 144.76H324.296C314.856 144.76 310.696 148.44 310.696 156.44V189.88ZM34.24 360.76C34.24 369.4 38.56 373.24 48.48 373.24H53.76V379H5.6V373.24H10.88C18.56 373.24 21.92 370.36 21.92 363.96V282.04C21.92 275.64 18.56 272.76 10.88 272.76H5.6V267H88L95.36 295.48H90.4L89.6 293.24C85.28 281.24 80.96 273.08 62.08 273.08H47.84C38.4 273.08 34.24 276.44 34.24 284.44V319.16H64.48C70.88 319.16 73.76 316.12 73.76 309.08V304.28H79.52V340.92H73.76V336.12C73.76 329.08 70.88 326.04 64.48 326.04H34.24V360.76ZM113.903 364.44C113.903 370.36 116.623 373.72 121.423 373.72H126.542V379H89.5825V373.72H94.7025C99.5025 373.72 102.222 370.36 102.222 364.44V320.12C102.222 309.4 100.622 308.6 88.4625 309.56V304.28C100.302 303 104.463 301.56 109.102 298.04H113.903V364.44ZM99.5025 273.88V272.92C99.5025 268.12 102.222 265.4 107.023 265.4H107.983C112.783 265.4 115.503 268.12 115.503 272.92V273.88C115.503 278.68 112.783 281.4 107.983 281.4H107.023C102.222 281.4 99.5025 278.68 99.5025 273.88ZM124.209 339.48C124.209 314.52 139.409 296.44 163.569 296.44C182.769 296.44 196.529 311 196.529 335.64H137.329C137.169 336.92 137.169 338.2 137.169 339.48C137.169 359.32 148.209 374.52 165.169 374.52C175.889 374.52 187.409 368.12 192.369 356.6L197.329 359.96C190.929 372.92 180.209 381.4 163.249 381.4C141.009 381.4 124.209 364.44 124.209 339.48ZM137.969 329.08H184.529C183.889 313.56 175.409 302.52 162.449 302.52C149.009 302.52 140.529 313.4 137.969 329.08ZM219.04 364.44C219.04 370.36 221.76 373.72 226.56 373.72H231.68V379H194.72V373.72H199.84C204.64 373.72 207.36 370.36 207.36 364.44V278.52C207.36 267.8 205.76 267 193.6 267.96V262.68C205.44 261.4 209.6 259.96 214.24 256.44H219.04V364.44ZM300.706 364.44C300.706 370.36 303.426 373.72 308.226 373.72H313.346V379H289.026V364.92C281.986 375.16 272.066 381.4 260.386 381.4C241.346 381.4 229.346 366.2 229.346 339C229.346 312.92 242.306 296.44 263.106 296.44C274.306 296.44 283.106 301.24 289.026 309.56V278.52C289.026 267.8 287.426 267 275.266 267.96V262.68C287.106 261.4 291.266 259.96 295.906 256.44H300.706V364.44ZM242.306 337.72C242.306 360.12 250.626 372.6 263.426 372.6C273.986 372.6 282.946 366.04 289.026 354.36V322.52C285.666 310.68 277.826 304.28 266.946 304.28C252.066 304.28 242.306 316.28 242.306 337.72Z" fill="#FFDA3D"/>
<path d="M330.142 276.389L323.766 258.194H326.358L332.112 275.145H330.764L336.622 258.194H339.162L332.786 276.389H330.142ZM315.057 276.389V258.245H317.597V276.389H315.057ZM310.65 260.63V258.194H322.055V260.63H310.65ZM323.507 276.389V258.194H326.047V276.389H323.507ZM336.83 276.389V258.194H339.37V276.389H336.83Z" fill="#FFDA3D"/>
</svg>