<svg width="288" height="209" viewBox="0 0 288 209" fill="none" xmlns="http://www.w3.org/2000/svg">
<path d="M126.902 169.412C129.125 163.408 131.512 157.462 133.534 151.388C136.889 141.307 139.815 131.077 143.274 121.034C147.673 108.266 152.397 95.6158 157.026 82.9273C161.491 70.6841 165.877 58.409 170.544 46.2421C175.886 32.3166 180.064 17.9141 187.339 4.75822C189.032 1.69264 190.58 -0.740111 194.415 0.207547C197.366 0.935782 199.066 4.39251 198.788 8.47571C197.83 22.6238 196.609 36.7592 196.001 50.9232C195.071 72.6207 194.594 94.3406 193.869 116.048C193.648 122.684 193.238 129.318 192.847 137.415C194.547 135.487 195.594 134.81 195.878 133.897C199.403 122.586 202.711 111.204 206.293 99.9089C208.702 92.3149 211.411 84.8163 214.063 77.3018C217.103 68.6934 220.114 60.0722 223.368 51.5465C224.56 48.4205 226.102 45.3199 228.038 42.6137C230.577 39.0616 234.985 39.4209 236.373 43.5709C237.952 48.2901 239.003 53.4291 239.025 58.3931C239.088 72.9324 238.422 87.4748 238.243 102.02C238.088 114.512 238.211 127.009 238.211 140.118C239.189 139.532 240.239 139.288 240.475 138.702C242.834 132.921 244.994 127.057 247.346 121.273C248.891 117.476 250.799 113.825 252.3 110.012C258.036 95.4154 263.523 80.7204 269.423 66.1938C271.318 61.5255 274.064 57.1815 276.694 52.8567C278.135 50.4875 280.51 48.9674 283.43 49.6289C286.678 50.3635 287.122 53.2128 287.188 55.9477C287.485 68.0764 287.857 80.2116 287.869 92.3435C287.882 102.427 287.283 112.508 287.245 122.592C287.22 129.331 287.712 136.073 287.964 142.814C287.992 143.542 288.037 144.283 287.945 145.002C287.592 147.788 285.943 149.454 283.225 149.521C280.598 149.585 279.324 147.664 279.128 145.276C278.51 137.787 277.605 130.282 277.621 122.786C277.65 109.732 278.309 96.6779 278.655 83.6238C278.75 80.1193 278.668 76.6117 277.476 72.7448C275.691 76.1442 273.553 79.4038 272.182 82.9623C266.629 97.3775 261.479 111.955 255.838 126.335C252.489 134.867 248.541 143.161 244.76 151.518C244.18 152.803 243.08 153.852 242.184 154.984C240.1 157.621 237.823 159.239 234.118 157.907C230.719 156.686 229.962 154.11 229.864 151.127C229.309 133.92 228.619 116.712 228.439 99.4986C228.338 90.0475 229.205 80.59 229.495 71.1325C229.543 69.5965 228.855 68.0351 228.117 64.766C226.124 69.7491 224.532 73.1391 223.394 76.6753C218.582 91.6375 213.795 106.612 209.213 121.648C206.186 131.576 203.651 141.66 200.636 151.591C198.955 157.128 196.717 162.492 194.78 167.956C193.68 171.063 191.665 172.952 188.31 172.481C184.63 171.966 183.996 168.875 183.901 165.905C183.621 156.972 183.331 148.033 183.447 139.1C183.599 127.512 184.214 115.93 184.494 104.345C184.772 92.8364 184.646 81.3119 185.147 69.8159C185.579 59.9132 186.654 50.0423 187.417 40.1555C187.616 37.5733 187.72 34.9847 186.717 31.8142C185.787 32.9145 184.463 33.8653 183.99 35.1405C178.538 49.842 173.209 64.5911 167.861 79.3307C164.802 87.7578 161.702 96.1723 158.741 104.634C153.567 119.425 148.449 134.238 143.378 149.063C140.487 157.516 136.722 165.838 135.186 174.545C133.477 184.26 129.084 192.849 126.382 202.097C125.433 205.35 124.31 209.351 120.242 208.975C116.121 208.597 115.872 204.231 115.276 200.978C114.8 198.383 114.907 195.648 114.995 192.983C115.705 172.014 116.458 151.044 117.228 130.078C117.865 112.734 118.407 95.3836 119.262 78.0491C119.735 68.458 120.778 58.8924 121.516 49.3141C121.646 47.635 121.535 45.9337 120.34 43.8634C119.11 47.2089 117.862 50.5448 116.654 53.8965C113.292 63.2141 109.966 72.5476 106.588 81.862C101.152 96.8496 95.3595 111.716 90.3142 126.838C84.3418 144.741 78.9843 162.855 73.3966 180.889C71.6812 186.419 70.1613 192.013 68.4049 197.53C67.4936 200.389 66.1093 203.264 62.4798 202.8C59.1499 202.374 57.8665 199.903 57.5165 196.605C56.8291 190.124 55.6466 183.694 55.0664 177.207C53.4204 158.889 51.7617 140.566 50.5099 122.22C49.2107 103.175 48.3845 84.0976 47.3313 65.0331C47.2682 63.8692 47.0223 62.7149 46.7101 60.4411C43.9636 67.1479 41.5008 72.7511 39.3597 78.4752C35.2131 89.5609 31.0728 100.653 27.251 111.853C20.7772 130.829 14.521 149.88 8.26171 168.932C7.33779 171.743 5.64446 173.184 2.9263 172.297C0.309051 171.441 -0.548652 169.377 0.33743 166.48C4.28223 153.56 7.88962 140.531 12.0236 127.674C15.4954 116.878 19.3645 106.199 23.3535 95.584C28.2632 82.5171 33.4977 69.5742 38.5651 56.5678C40.5643 51.4383 42.4311 46.258 44.4776 41.1477C45.7168 38.0535 46.7795 33.9544 50.9009 34.46C55.0916 34.9752 55.0538 38.8739 55.202 42.4579C55.9399 60.1931 56.6431 77.9346 57.8192 95.6444C58.7337 109.401 60.405 123.104 61.5843 136.845C62.2244 144.315 62.483 151.817 63.0254 159.3C63.3722 164.073 63.9209 168.834 65.4566 173.724C66.0116 172.319 66.6328 170.939 67.1121 169.508C73.8759 149.333 80.4537 129.095 87.4194 108.991C94.0414 89.8726 101.048 70.8908 107.916 51.8581C111.905 40.8042 115.897 29.7503 120.003 18.7409C120.841 16.4895 121.86 14.1362 123.408 12.3808C124.477 11.1692 126.659 10.2883 128.239 10.4283C129.39 10.5332 131.036 12.4094 131.304 13.7355C132.017 17.2527 132.534 20.9225 132.364 24.4937C131.128 50.8278 129.734 77.1523 128.321 103.477C127.687 115.278 126.656 127.06 126.246 138.868C125.896 148.961 126.174 159.074 126.174 169.18C126.413 169.263 126.653 169.349 126.893 169.431L126.902 169.412Z" fill="#FFDA3D"/>
</svg>
